<?xml version="1.0" encoding="UTF-8" standalone="no"?>
<svg width="150px" height="56px" viewBox="0 0 150 56" version="1.1" xmlns="http://www.w3.org/2000/svg" xmlns:xlink="http://www.w3.org/1999/xlink">
    <!-- Generator: Sketch 39.1 (31720) - http://www.bohemiancoding.com/sketch -->
    <title>logo</title>
    <desc>Created with Sketch.</desc>
    <defs></defs>
    <g id="Page-1" stroke="none" stroke-width="1" fill="none" fill-rule="evenodd">
        <g id="t" transform="translate(-2.000000, -2.000000)" fill="#DADADA">
            <g id="logo" transform="translate(2.000000, 2.000000)">
                <path d="M0.95,54 L26.388,54 L26.388,41.36 L13.432,41.36 L13.432,1.623 L0.95,1.623 L0.95,54 Z M32.96475,38.042 C32.96475,50.84 41.10175,55.58 49.79175,55.58 C58.48175,55.58 66.61875,50.603 66.61875,37.963 L66.61875,17.581 C66.61875,5.257 58.48175,0.043 49.79175,0.043 C41.10175,0.043 32.96475,5.257 32.96475,17.66 L32.96475,38.042 Z M53.97875,37.805 C53.97875,41.281 52.08275,42.703 49.79175,42.703 C47.50075,42.703 45.60475,41.281 45.60475,37.805 L45.60475,17.976 C45.60475,14.421 47.50075,12.999 49.79175,12.999 C52.08275,12.999 53.97875,14.421 53.97875,17.976 L53.97875,37.805 Z M90.8125,37.489 L96.0265,37.489 L96.0265,38.595 C96.0265,41.913 94.1305,43.098 91.9185,43.098 C89.5485,43.098 87.5735,41.676 87.5735,37.884 L87.5735,17.739 C87.5735,13.868 89.7855,12.683 91.8395,12.683 C94.1305,12.683 96.1055,13.789 96.0265,19.161 L108.0345,19.398 C108.2715,2.492 97.4485,0.043 91.6815,0.043 C84.3345,0.043 74.9335,3.756 74.9335,18.371 L74.9335,36.62 C74.9335,52.815 84.9665,55.58 91.6815,55.58 C98.3965,55.58 108.0345,52.183 108.0345,36.699 L108.0345,26.666 L90.8125,26.666 L90.8125,37.489 Z M116.34925,38.042 C116.34925,50.84 124.48625,55.58 133.17625,55.58 C141.86625,55.58 150.00325,50.603 150.00325,37.963 L150.00325,17.581 C150.00325,5.257 141.86625,0.043 133.17625,0.043 C124.48625,0.043 116.34925,5.257 116.34925,17.66 L116.34925,38.042 Z M137.36325,37.805 C137.36325,41.281 135.46725,42.703 133.17625,42.703 C130.88525,42.703 128.98925,41.281 128.98925,37.805 L128.98925,17.976 C128.98925,14.421 130.88525,12.999 133.17625,12.999 C135.46725,12.999 137.36325,14.421 137.36325,17.976 L137.36325,37.805 Z" id="LOGO"></path>
            </g>
        </g>
    </g>
</svg>